<svg width="288" height="80" viewBox="0 0 288 80" fill="none" xmlns="http://www.w3.org/2000/svg">
<path d="M115.043 63.3267V24.1489H100V15.5808H139.439V24.1489H124.396V63.3267H115.043Z" fill="white"/>
<path d="M155.675 29.97H164.308L164.243 50.1803C164.178 58.5521 157.964 64.3078 149.003 64.3078C140.174 64.3078 134.353 58.683 134.353 50.1803V29.97H142.986V48.7413C142.986 53.3197 145.472 56.3284 149.2 56.3284C153.124 56.3284 155.675 53.2543 155.675 48.8067V29.97Z" fill="white"/>
<path d="M199.289 43.5089V63.3267H190.655V43.7051C190.655 39.7808 187.974 36.8375 184.246 36.8375C180.518 36.8375 177.574 39.7808 177.574 43.4435V63.3267H168.941V29.97H176.986V32.3246C179.079 30.1008 182.284 28.8581 186.012 28.8581C190.394 28.8581 193.991 30.5586 196.346 33.5019C198.7 30.624 202.821 28.8581 207.399 28.8581C215.379 28.8581 220.873 34.2867 220.873 42.2008V63.3267H212.239V43.9013C212.239 39.7154 209.623 36.8375 205.83 36.8375C202.167 36.8375 199.289 39.7154 199.289 43.5089Z" fill="white"/>
<path d="M244.6 64.3078C240.414 64.3078 236.555 62.8035 233.546 60.2527V63.3267H225.501V15.5808H234.135V32.5862C237.013 30.297 240.675 28.9889 244.6 28.9889C254.214 28.9889 261.932 36.8375 261.932 46.6484C261.932 56.4592 254.214 64.3078 244.6 64.3078ZM243.488 56.3284C248.655 56.3284 252.841 52.077 252.841 46.6484C252.841 41.1543 248.655 36.9684 243.488 36.9684C238.321 36.9684 234.135 41.1543 234.135 46.6484C234.135 52.077 238.321 56.3284 243.488 56.3284Z" fill="white"/>
<path d="M264.148 20.0938C264.148 17.0851 266.568 14.8613 269.642 14.8613C272.782 14.8613 275.267 17.0851 275.267 20.0938C275.267 23.037 272.782 25.3262 269.642 25.3262C266.568 25.3262 264.148 23.1024 264.148 20.0938ZM265.391 63.3267V29.97H274.024V63.3267H265.391Z" fill="white"/>
<path d="M278.71 63.3267V15.5808H287.343V63.3267H278.71Z" fill="white"/>
<ellipse cx="40" cy="40" rx="40" ry="40" fill="#00A3E7"/>
<ellipse cx="40" cy="40" rx="40" ry="40" fill="url(#paint0_radial_5093_4400)"/>
<path d="M68.3038 42.4691C68.3701 41.6779 68.404 40.8775 68.404 40.0691C68.404 24.4211 55.7187 11.7358 40.0706 11.7358C27.5129 11.7358 16.8633 19.9054 13.1467 31.2197C16.8436 30.8362 25.904 28.4025 35.904 37.5692C45.2316 46.1195 66.7024 60.4282 68.3038 42.4691Z" fill="white"/>
<defs>
<radialGradient id="paint0_radial_5093_4400" cx="0" cy="0" r="1" gradientUnits="userSpaceOnUse" gradientTransform="translate(40 58.7952) rotate(-39.7605) scale(72.5878 57.3666)">
<stop offset="0.109324" stop-color="#3CC7F5"/>
<stop offset="1" stop-color="#5686F5"/>
</radialGradient>
</defs>
</svg>
